<?xml version="1.0" encoding="UTF-8" standalone="no"?>
<!-- Created with Inkscape (http://www.inkscape.org/) -->

<svg
   width="54.182026mm"
   height="53.763905mm"
   viewBox="0 0 54.182026 53.763905"
   version="1.1"
   id="svg21160"
   xml:space="preserve"
   inkscape:export-filename="youtube.svg"
   inkscape:export-xdpi="96"
   inkscape:export-ydpi="96"
   inkscape:version="1.2.2 (732a01da63, 2022-12-09)"
   sodipodi:docname="youtube.svg"
   xmlns:inkscape="http://www.inkscape.org/namespaces/inkscape"
   xmlns:sodipodi="http://sodipodi.sourceforge.net/DTD/sodipodi-0.dtd"
   xmlns="http://www.w3.org/2000/svg"
   xmlns:svg="http://www.w3.org/2000/svg"><sodipodi:namedview
     id="namedview21162"
     pagecolor="#ffffff"
     bordercolor="#000000"
     borderopacity="0.25"
     inkscape:showpageshadow="2"
     inkscape:pageopacity="0.0"
     inkscape:pagecheckerboard="0"
     inkscape:deskcolor="#d1d1d1"
     inkscape:document-units="mm"
     showgrid="false"
     inkscape:zoom="0.52347032"
     inkscape:cx="26.744592"
     inkscape:cy="579.78455"
     inkscape:window-width="1402"
     inkscape:window-height="1002"
     inkscape:window-x="-7"
     inkscape:window-y="0"
     inkscape:window-maximized="0"
     inkscape:current-layer="layer1" /><defs
     id="defs21157"><linearGradient
       id="linearGradient1951"
       inkscape:swatch="solid"><stop
         style="stop-color:#a52a2a;stop-opacity:1;"
         offset="0"
         id="stop1949" /></linearGradient></defs><g
     inkscape:label="Layer 1"
     inkscape:groupmode="layer"
     id="layer1"
     transform="translate(-60.307477,-215.19074)"><path
       style="fill:#a52a2a;stroke:#a52a2a;stroke-width:0.0893501"
       d="m 84.208641,256.44533 c -1.62455,-0.29133 -2.87228,-0.69792 -4.21166,-1.37243 -1.82777,-0.92044 -3.838,-2.6205 -5.13609,-4.34361 -0.778,-1.03271 -1.79014,-2.95623 -2.18036,-4.14364 -1.38301,-4.20836 -0.77901,-8.8567 1.63346,-12.57106 2.22559,-3.42665 5.59917,-5.68202 9.71595,-6.4955 1.13666,-0.2246 4.04898,-0.22422 5.18231,8e-4 4.10746,0.81509 7.50671,3.08722 9.71667,6.49481 1.751529,2.70073 2.598049,6.01931 2.317249,9.08418 -0.18642,2.03474 -0.55793,3.41135 -1.394489,5.16717 -2.08219,4.37024 -6.02801,7.34481 -10.84935,8.17883 -1.32936,0.22995 -3.5131,0.23021 -4.79369,5.3e-4 z m 4.10616,-5.02161 c 0.83536,-0.14086 1.90169,-0.50536 2.72913,-0.9329 4.59134,-2.37235 6.46037,-7.98499 4.21726,-12.66431 -1.30838,-2.72938 -3.74799,-4.63032 -6.73405,-5.24715 -1.29105,-0.26669 -3.20691,-0.20851 -4.45253,0.13521 -4.75115,1.31106 -7.74627,6.01856 -6.91411,10.86708 0.90708,5.28501 5.82284,8.74106 11.1543,7.84207 z"
       id="path23978" /><path
       style="fill:#a52a2a;stroke:#a52a2a;stroke-width:0.0893501"
       d="m 101.25058,229.98842 c -0.97457,-0.19212 -1.924099,-0.96023 -2.409909,-1.94947 -0.21675,-0.44136 -0.24665,-0.60516 -0.24665,-1.35108 0,-0.74274 0.0315,-0.917 0.25208,-1.39427 0.31888,-0.68997 1.00999,-1.37813 1.713619,-1.70632 0.4691,-0.21879 0.64245,-0.25004 1.38703,-0.25004 0.78112,0 0.89974,0.024 1.44611,0.29312 1.36521,0.67234 2.15834,2.20786 1.86756,3.61566 -0.14857,0.71932 -0.44419,1.28649 -0.93234,1.78876 -0.45804,0.47128 -0.91427,0.72577 -1.64,0.9148 -0.55936,0.14569 -0.85497,0.15368 -1.4375,0.0388 z"
       id="path23980" /><path
       style="fill:#a52a2a;fill-opacity:1;stroke:#a52a2a;stroke-width:0.291585;stroke-dasharray:none"
       d="m 73.229132,268.62812 c -4.49611,-0.32611 -6.24934,-0.95527 -8.52002,-3.05752 -3.02724,-2.80269 -3.63149,-4.95056 -4.12305,-14.65601 -0.36665,-7.23904 0.0749,-22.96442 0.73089,-26.03172 0.69124,-3.232 1.88449,-5.16029 4.3632,-7.05089 2.7359,-2.08677 6.63943,-2.48723 24.32321,-2.49531 12.393978,-0.006 14.298418,0.1826 17.632958,1.74302 3.62597,1.69679 5.74881,4.8966 6.22418,9.38184 0.4492,4.23825 0.64781,20.73386 0.31861,26.46038 -0.45961,7.99458 -1.08542,9.90923 -4.135,12.65108 -3.3716,3.03136 -3.85541,3.10909 -20.040748,3.22013 -7.28547,0.05 -14.83388,-0.0243 -16.77423,-0.165 z"
       id="path26174" /><path
       style="fill:#ffffff;fill-opacity:1;stroke:#a52a2a;stroke-width:0.126559;stroke-dasharray:none"
       d="m 85.090069,257.02916 c -1.52873,-0.34295 -2.58618,-0.71581 -3.790807,-1.33662 -1.580599,-0.81459 -2.608966,-1.60568 -4.054369,-3.11892 -3.430124,-3.59111 -4.747032,-8.61507 -3.52231,-13.43752 1.392012,-5.48119 5.909093,-9.73712 11.462308,-10.79962 1.215009,-0.23247 4.155199,-0.23247 5.370211,0 5.440415,1.04092 9.973448,5.24029 11.396448,10.55759 1.24728,4.66067 0.2088,9.3467 -2.918384,13.16906 -1.794399,2.19329 -4.553159,3.94641 -7.435543,4.7251 -1.099703,0.29709 -1.550426,0.3468 -3.474907,0.38328 -1.609913,0.0305 -2.434678,-0.008 -3.032647,-0.14235 z m 5.128969,-4.99213 c 4.369504,-1.1136 7.254336,-4.83127 7.254336,-9.34865 0,-4.25963 -2.524872,-7.75369 -6.633914,-9.18039 -0.927516,-0.32204 -1.167191,-0.35136 -2.906284,-0.3554 -1.641462,-0.004 -2.022377,0.0352 -2.843107,0.29151 -4.162049,1.29959 -6.823453,4.90521 -6.823453,9.24428 0,4.49049 2.8815,8.22902 7.202535,9.34476 1.325533,0.34226 3.415461,0.34397 4.749887,0.004 z"
       id="path26180" /><path
       style="fill:#ffffff;fill-opacity:1;stroke:#a52a2a;stroke-width:0.126559;stroke-dasharray:none"
       d="m 98.921256,229.7414 c -0.721715,-0.34042 -1.279425,-0.84693 -1.676752,-1.52282 -0.294074,-0.50023 -0.34458,-0.72681 -0.342083,-1.53459 0.0033,-1.07433 0.249836,-1.67756 0.96529,-2.3621 0.932985,-0.89268 2.482539,-1.18692 3.593529,-0.68237 0.66265,0.30094 1.40397,1.04226 1.70491,1.70491 0.27044,0.59549 0.3112,1.64423 0.0923,2.37485 -0.19039,0.63544 -0.99799,1.55337 -1.66743,1.89521 -0.74067,0.37822 -2.009152,0.43852 -2.669764,0.12691 z"
       id="path26184" /></g></svg>
