<?xml version="1.0" encoding="UTF-8" standalone="no"?>
<!-- Created with Inkscape (http://www.inkscape.org/) -->

<svg
   width="12.170837mm"
   height="12.170834mm"
   viewBox="0 0 12.170837 12.170834"
   version="1.1"
   id="svg5"
   xml:space="preserve"
   xmlns:inkscape="http://www.inkscape.org/namespaces/inkscape"
   xmlns:sodipodi="http://sodipodi.sourceforge.net/DTD/sodipodi-0.dtd"
   xmlns="http://www.w3.org/2000/svg"
   xmlns:svg="http://www.w3.org/2000/svg"><sodipodi:namedview
     id="namedview7"
     pagecolor="#ffffff"
     bordercolor="#000000"
     borderopacity="0.25"
     inkscape:showpageshadow="2"
     inkscape:pageopacity="0.0"
     inkscape:pagecheckerboard="0"
     inkscape:deskcolor="#d1d1d1"
     inkscape:document-units="mm"
     showgrid="false" /><defs
     id="defs2" /><g
     inkscape:label="Layer 1"
     inkscape:groupmode="layer"
     id="layer1"
     style="display:inline"
     transform="translate(-33.452421,-94.978439)"><path
       d="m 39.537839,94.978457 c -3.35548,0 -6.085417,2.72994 -6.085417,6.085413 0,2.61518 1.658297,4.84989 3.978375,5.70891 -0.06682,-0.59573 -0.05634,-1.57136 0.05392,-2.04374 0.103256,-0.4437 0.667078,-2.82764 0.667078,-2.82764 0,0 -0.170209,-0.34087 -0.170209,-0.84431 0,-0.79114 0.45837,-1.381433 1.029185,-1.381433 0.4855,0 0.71961,0.364493 0.71961,0.801213 0,0.48834 -0.310478,1.21777 -0.471289,1.89383 -0.134116,0.56646 0.283994,1.02831 0.842342,1.02831 1.011033,0 1.788182,-1.06616 1.788182,-2.6049 0,-1.361963 -0.978428,-2.314363 -2.37584,-2.314363 -1.618393,0 -2.568383,1.21406 -2.568383,2.468833 0,0.48876 0.188167,1.01299 0.423359,1.29829 0.04638,0.0564 0.05316,0.10568 0.03939,0.16299 -0.0431,0.17963 -0.138929,0.56602 -0.157968,0.64521 -0.02472,0.10437 -0.08249,0.12603 -0.190137,0.0759 -0.710616,-0.33081 -1.154775,-1.36939 -1.154775,-2.20386 0,-1.794293 1.303555,-3.442443 3.758815,-3.442443 1.973491,0 3.506989,1.40595 3.506989,3.285573 0,1.96056 -1.236375,3.53827 -2.95192,3.53827 -0.576499,0 -1.118229,-0.29952 -1.303538,-0.65331 0,0 -0.285302,1.08608 -0.354661,1.35234 -0.119712,0.46049 -0.632165,1.41447 -0.889416,1.84778 0.588497,0.1901 1.215381,0.29395 1.86631,0.29395 3.355609,0 6.085417,-2.7298 6.085417,-6.08542 0,-3.355473 -2.729808,-6.085413 -6.085417,-6.085413 z"
       id="path182"
       style="fill:#a52a2a;fill-opacity:1;stroke-width:0.265;stroke-dasharray:none"
       inkscape:export-filename="Pinterest.svg"
       inkscape:export-xdpi="96"
       inkscape:export-ydpi="96" /></g></svg>
