<?xml version="1.0" encoding="UTF-8" standalone="no"?>
<!-- Created with Inkscape (http://www.inkscape.org/) -->

<svg
   width="12.175597mm"
   height="12.175606mm"
   viewBox="0 0 12.175597 12.175606"
   version="1.1"
   id="svg5"
   xml:space="preserve"
   xmlns:inkscape="http://www.inkscape.org/namespaces/inkscape"
   xmlns:sodipodi="http://sodipodi.sourceforge.net/DTD/sodipodi-0.dtd"
   xmlns="http://www.w3.org/2000/svg"
   xmlns:svg="http://www.w3.org/2000/svg"><sodipodi:namedview
     id="namedview7"
     pagecolor="#ffffff"
     bordercolor="#000000"
     borderopacity="0.25"
     inkscape:showpageshadow="2"
     inkscape:pageopacity="0.0"
     inkscape:pagecheckerboard="0"
     inkscape:deskcolor="#d1d1d1"
     inkscape:document-units="mm"
     showgrid="false" /><defs
     id="defs2" /><g
     inkscape:label="Layer 1"
     inkscape:groupmode="layer"
     id="layer1"
     style="display:inline"
     transform="translate(-58.712257,-92.073029)"><path
       d="m 64.800056,92.073029 c -3.356769,0 -6.087798,2.73103 -6.087798,6.087797 0,3.356774 2.731029,6.087804 6.087798,6.087804 3.356768,0 6.087797,-2.73077 6.087797,-6.087804 0,-3.357027 -2.731029,-6.087797 -6.087797,-6.087797 z m 2.576777,8.824121 c -0.07647,0.11483 -0.202407,0.17674 -0.330729,0.17674 -0.07567,0 -0.152136,-0.0214 -0.219869,-0.0667 -0.654315,-0.4363 -1.763977,-0.72734 -2.690019,-0.72708 -0.982662,5.3e-4 -1.719262,0.24183 -1.726671,0.24421 -0.207433,0.0704 -0.432594,-0.0429 -0.501914,-0.25082 -0.06932,-0.20796 0.04313,-0.432864 0.251089,-0.501924 0.03493,-0.0116 0.867569,-0.28442 1.977496,-0.28495 0.926042,-5.3e-4 2.214033,0.24924 3.13055,0.860164 0.182563,0.12171 0.231775,0.36803 0.110067,0.55033 z m 0.791633,-1.624544 c -0.08599,0.13811 -0.234421,0.21405 -0.386027,0.21405 -0.08202,0 -0.1651,-0.022 -0.239713,-0.0688 -1.186391,-0.73925 -2.405591,-0.89562 -3.455987,-0.88636 -1.185863,0.0106 -2.134129,0.2368 -2.150269,0.24157 -0.239977,0.0683 -0.492389,-0.072 -0.560916,-0.313 -0.06853,-0.24157 0.07197,-0.49266 0.313266,-0.56092 0.07329,-0.0209 1.019704,-0.25374 2.315369,-0.26458 1.181365,-0.01 2.653506,0.16139 4.019285,1.01229 0.212461,0.13229 0.277813,0.41275 0.144992,0.62574 z m 0.789781,-1.899707 c -0.09869,0.16775 -0.275431,0.261147 -0.456935,0.261147 -0.09102,0 -0.183092,-0.0236 -0.267494,-0.0728 -1.382712,-0.81175 -3.063875,-0.98399 -4.230687,-0.98558 -0.0056,0 -0.01111,0 -0.01667,0 -1.411023,0 -2.497667,0.24818 -2.508515,0.25083 -0.285221,0.0653 -0.569118,-0.11086 -0.635264,-0.39555 -0.06615,-0.28443 0.110331,-0.56859 0.394758,-0.635 0.04895,-0.0114 1.20994,-0.27861 2.749021,-0.27861 0.0061,0 0.01217,0 0.01826,0 1.297781,0.002 3.17791,0.19923 4.765146,1.13109 0.251883,0.14817 0.336285,0.47255 0.188383,0.72443 z"
       id="path299"
       style="fill:#a52a2a;fill-opacity:1;stroke-width:0.264583" /></g></svg>
